<svg width="475px" height="189px" viewBox="0 0 475 189" version="1.1" xmlns="http://www.w3.org/2000/svg" xmlns:xlink="http://www.w3.org/1999/xlink">
<defs>
<polygon id="path-1" points="0.986 0.748 86.624 0.748 86.624 47.62 0.986 47.62"></polygon>
<path d="M0.22,35.529 C6.63,29.337 10.741,20.779 11.147,11.262 C20.697,10.883 29.287,6.769 35.494,0.34 C35.318,9.291 31.815,18.189 24.985,25.019 C18.133,31.871 9.2,35.375 0.22,35.529 L0.22,35.529 Z" id="path-3"></path>
</defs>
<g id="Kiosk-Mode" stroke="none" stroke-width="1" fill="none" fill-rule="evenodd">
<g id="Kiosk---Home" transform="translate(-48.000000, -48.000000)">
<g id="GNH_COLOR_Logo" transform="translate(48.000000, 48.000000)">
<g id="Group-5" transform="translate(153.000000, 0.000000)" fill="#FFFFFF">
<path d="M26.858,24.145 L45.076,24.145 L45.076,26.125 C45.076,32.219 43.055,37.353 39.013,41.526 C34.912,45.776 29.77,47.902 23.589,47.902 L22.281,47.902 C22.083,47.862 21.944,47.843 21.865,47.843 C18.695,47.843 15.456,46.892 12.147,44.99 C9.373,43.399 7.094,41.419 5.312,39.051 C1.785,34.354 0.021,29.385 0.021,24.145 C0.021,20.516 1.032,16.896 3.053,13.286 C6.124,7.774 10.602,4.067 16.486,2.165 C18.942,1.369 21.211,0.971 23.291,0.971 C27.452,0.971 31.034,1.646 34.035,2.994 C37.037,4.344 39.924,6.551 42.698,9.617 L38.508,13.431 C34.723,8.54 29.77,6.095 23.648,6.095 C20.636,6.095 17.753,6.891 15,8.482 C12.345,9.996 10.166,12.034 8.461,14.596 C6.619,17.352 5.698,20.419 5.698,23.796 L5.816,24.145 C5.816,27.406 6.648,30.487 8.313,33.388 C9.977,36.29 12.226,38.595 15.059,40.303 C17.714,41.895 20.33,42.69 22.905,42.69 C25.56,42.69 28.081,42.113 30.469,40.958 C32.856,39.803 34.812,38.177 36.338,36.082 C38.022,33.772 38.865,31.511 38.865,29.298 L26.858,29.298 L26.858,24.145" id="Fill-1"></path>
<path d="M71.802,6.095 C68.493,6.095 65.442,6.901 62.648,8.511 C59.855,10.123 57.631,12.34 55.977,15.164 C54.322,17.987 53.495,21.069 53.495,24.407 C53.495,27.687 54.302,30.71 55.917,33.476 C57.532,36.241 59.766,38.45 62.619,40.099 C65.472,41.749 68.533,42.574 71.802,42.574 C75.091,42.574 78.137,41.763 80.941,40.143 C83.744,38.523 85.978,36.305 87.642,33.49 C89.307,30.676 90.139,27.649 90.139,24.407 C90.139,21.147 89.337,18.109 87.732,15.295 C86.126,12.481 83.903,10.243 81.06,8.584 C78.216,6.925 75.131,6.095 71.802,6.095 Z M71.802,0.971 C78.479,0.971 84.155,3.242 88.832,7.783 C93.507,12.325 95.845,17.867 95.845,24.407 C95.845,28.619 94.785,32.515 92.666,36.096 C90.544,39.677 87.623,42.53 83.898,44.655 C80.173,46.78 76.141,47.843 71.802,47.843 C67.502,47.843 63.52,46.805 59.855,44.728 C56.189,42.652 53.267,39.789 51.088,36.14 C48.908,32.491 47.818,28.58 47.818,24.407 C47.818,20.196 48.889,16.295 51.028,12.704 C53.168,9.113 56.1,6.251 59.825,4.115 C63.491,2.019 67.483,0.971 71.802,0.971 L71.802,0.971 Z" id="Fill-3"></path>
<path d="M122.572,6.095 C119.263,6.095 116.212,6.901 113.417,8.511 C110.625,10.123 108.4,12.34 106.746,15.164 C105.091,17.987 104.265,21.069 104.265,24.407 C104.265,27.687 105.072,30.71 106.687,33.476 C108.3,36.241 110.535,38.45 113.388,40.099 C116.242,41.749 119.302,42.574 122.572,42.574 C125.861,42.574 128.906,41.763 131.71,40.143 C134.513,38.523 136.748,36.305 138.412,33.49 C140.076,30.676 140.908,27.649 140.908,24.407 C140.908,21.147 140.107,18.109 138.501,15.295 C136.896,12.481 134.671,10.243 131.83,8.584 C128.986,6.925 125.9,6.095 122.572,6.095 Z M122.572,0.971 C129.248,0.971 134.925,3.242 139.601,7.783 C144.277,12.325 146.615,17.867 146.615,24.407 C146.615,28.619 145.554,32.515 143.435,36.096 C141.314,39.677 138.392,42.53 134.667,44.655 C130.943,46.78 126.912,47.843 122.572,47.843 C118.273,47.843 114.291,46.805 110.625,44.728 C106.958,42.652 104.037,39.789 101.857,36.14 C99.677,32.491 98.587,28.58 98.587,24.407 C98.587,20.196 99.658,16.295 101.798,12.704 C103.937,9.113 106.869,6.251 110.595,4.115 C114.259,2.019 118.251,0.971 122.572,0.971 L122.572,0.971 Z" id="Fill-4"></path>
</g>
<path d="M310.767,7.056 L310.767,41.758 L314.246,41.758 C322.962,41.758 328.966,38.954 332.255,33.345 C333.8,30.706 334.574,27.687 334.574,24.291 C334.574,18.449 332.513,14.033 328.392,11.044 C324.726,8.385 319.802,7.056 313.621,7.056 L310.767,7.056 Z M305.033,1.932 L314.601,1.932 C319.615,1.932 324.082,2.815 328.005,4.581 C332.443,6.6 335.751,9.589 337.931,13.548 C339.576,16.537 340.398,19.953 340.398,23.796 C340.398,30.298 338.396,35.655 334.394,39.866 C329.937,44.544 323.517,46.883 315.136,46.883 L305.033,46.883 L305.033,1.932 L305.033,1.932 Z" id="Fill-6" fill="#FFFFFF"></path>
<polyline id="Fill-7" fill="#FFFFFF" points="155.637 52.456 190.082 87.997 190.082 54.709 195.936 54.709 195.936 101.523 161.313 66.095 161.313 99.659 155.637 99.659 155.637 52.456"></polyline>
<polyline id="Fill-8" fill="#FFFFFF" points="207.52 54.709 232.158 54.709 232.158 59.833 213.227 59.833 213.227 72.41 231.683 72.41 231.683 77.534 213.227 77.534 213.227 94.536 232.158 94.536 232.158 99.659 207.52 99.659 207.52 54.709"></polyline>
<polygon id="Fill-9" fill="#FFFFFF" points="242.553 99.659 248.259 99.659 248.259 54.709 242.553 54.709"></polygon>
<path d="M284.066,76.923 L302.283,76.923 L302.283,78.902 C302.283,84.997 300.261,90.13 296.22,94.303 C292.119,98.554 286.978,100.679 280.796,100.679 L279.488,100.679 C279.291,100.64 279.152,100.62 279.072,100.62 C275.902,100.62 272.662,99.669 269.353,97.767 C266.58,96.177 264.302,94.196 262.519,91.828 C258.992,87.132 257.228,82.163 257.228,76.923 C257.228,73.293 258.238,69.673 260.259,66.063 C263.33,60.551 267.808,56.844 273.693,54.942 C276.15,54.146 278.417,53.748 280.5,53.748 C284.66,53.748 288.24,54.423 291.242,55.772 C294.244,57.121 297.13,59.328 299.906,62.395 L295.714,66.209 C291.931,61.318 286.978,58.872 280.855,58.872 C277.843,58.872 274.96,59.668 272.207,61.259 C269.552,62.774 267.373,64.811 265.669,67.373 C263.826,70.13 262.904,73.196 262.904,76.573 L263.023,76.923 C263.023,80.183 263.855,83.264 265.519,86.166 C267.185,89.068 269.433,91.373 272.267,93.08 C274.921,94.672 277.537,95.467 280.113,95.467 C282.767,95.467 285.289,94.89 287.675,93.736 C290.064,92.581 292.019,90.955 293.546,88.859 C295.23,86.55 296.072,84.288 296.072,82.075 L284.066,82.075 L284.066,76.923" id="Fill-10" fill="#FFFFFF"></path>
<polyline id="Fill-11" fill="#FFFFFF" points="310.894 54.709 316.63 54.709 316.63 72.759 338.535 72.759 338.535 54.709 344.21 54.709 344.21 99.659 338.535 99.659 338.535 78 316.63 78 316.63 99.659 310.894 99.659 310.894 54.709"></polyline>
<path d="M361.292,79.019 L361.292,94.653 L365.9,94.653 C372.972,94.653 376.509,92.207 376.509,87.316 C376.509,84.444 375.38,82.279 373.121,80.823 C371.199,79.62 368.693,79.019 365.603,79.019 L361.292,79.019 Z M361.292,59.716 L361.292,74.622 L363.908,74.622 C369.714,74.622 372.617,72.138 372.617,67.17 C372.617,64.394 371.804,62.415 370.179,61.231 C368.773,60.221 366.603,59.716 363.671,59.716 L361.292,59.716 Z M355.558,54.709 L361.292,54.709 C367.693,54.709 372.298,56.107 375.113,58.902 C377.015,60.784 377.966,63.035 377.966,65.655 C377.966,70.702 376.222,74.04 372.736,75.671 C376.281,75.962 378.996,77.961 380.878,81.668 C381.769,83.434 382.216,85.356 382.216,87.432 C382.216,91.528 380.501,94.672 377.074,96.864 C374.162,98.728 370.525,99.659 366.167,99.659 L355.558,99.659 L355.558,54.709 L355.558,54.709 Z" id="Fill-12" fill="#FFFFFF"></path>
<g id="Group-16" transform="translate(388.000000, 53.000000)">
<mask id="mask-2" fill="white">
<use xlink:href="#path-1"></use>
</mask>
<g id="Clip-14"></g>
<path d="M24.968,5.872 C21.66,5.872 18.609,6.678 15.816,8.289 C13.021,9.9 10.796,12.117 9.144,14.941 C7.488,17.765 6.662,20.846 6.662,24.184 C6.662,27.465 7.468,30.487 9.083,33.253 C10.699,36.019 12.933,38.227 15.785,39.877 C18.638,41.527 21.699,42.351 24.968,42.351 C28.257,42.351 31.304,41.541 34.107,39.92 C36.912,38.3 39.144,36.082 40.81,33.268 C42.474,30.454 43.306,27.426 43.306,24.184 C43.306,20.924 42.503,17.886 40.898,15.072 C39.294,12.258 37.07,10.021 34.226,8.362 C31.382,6.702 28.296,5.872 24.968,5.872 Z M24.968,0.748 C31.646,0.748 37.322,3.019 41.998,7.561 C46.673,12.103 49.011,17.644 49.011,24.184 C49.011,28.396 47.951,32.293 45.832,35.873 C43.712,39.454 40.789,42.307 37.064,44.433 C33.339,46.558 29.308,47.62 24.968,47.62 C20.669,47.62 16.687,46.583 13.021,44.505 C9.355,42.429 6.433,39.566 4.253,35.917 C2.074,32.268 0.986,28.358 0.986,24.184 C0.986,19.973 2.054,16.072 4.195,12.481 C6.335,8.89 9.267,6.028 12.992,3.893 C16.658,1.797 20.65,0.748 24.968,0.748 L24.968,0.748 Z" id="Fill-13" fill="#FFFFFF" mask="url(#mask-2)"></path>
<path d="M63.806,6.716 L63.806,23.049 C66.996,23.049 69.591,22.826 71.593,22.38 C75.734,21.448 77.804,18.867 77.804,14.635 C77.804,9.356 73.771,6.716 65.708,6.716 L63.806,6.716 Z M58.099,1.709 L66.302,1.709 C71.652,1.709 75.486,2.524 77.804,4.154 C81.371,6.659 83.154,10.036 83.154,14.286 C83.154,17.606 82.152,20.449 80.15,22.818 C78.15,25.186 75.484,26.612 72.154,27.097 L86.625,46.659 L79.765,46.659 L66.183,27.678 L63.806,27.678 L63.806,46.659 L58.099,46.659 L58.099,1.709 L58.099,1.709 Z" id="Fill-15" fill="#FFFFFF" mask="url(#mask-2)"></path>
</g>
<polyline id="Fill-17" fill="#FFFFFF" points="155.726 109.517 161.461 109.517 161.461 127.567 183.365 127.567 183.365 109.517 189.041 109.517 189.041 154.467 183.365 154.467 183.365 132.807 161.461 132.807 161.461 154.467 155.726 154.467 155.726 109.517"></polyline>
<path d="M218.166,113.68 C214.857,113.68 211.807,114.485 209.013,116.096 C206.219,117.707 203.995,119.924 202.341,122.748 C200.687,125.573 199.859,128.654 199.859,131.991 C199.859,135.272 200.666,138.294 202.281,141.061 C203.896,143.826 206.13,146.034 208.983,147.684 C211.836,149.333 214.897,150.158 218.166,150.158 C221.455,150.158 224.501,149.348 227.305,147.728 C230.108,146.107 232.343,143.889 234.007,141.075 C235.671,138.261 236.503,135.234 236.503,131.991 C236.503,128.731 235.701,125.694 234.096,122.879 C232.491,120.066 230.267,117.828 227.424,116.168 C224.581,114.509 221.495,113.68 218.166,113.68 Z M218.166,108.556 C224.843,108.556 230.52,110.826 235.196,115.368 C239.872,119.909 242.209,125.451 242.209,131.991 C242.209,136.203 241.15,140.1 239.03,143.681 C236.909,147.262 233.987,150.114 230.262,152.239 C226.537,154.365 222.505,155.428 218.166,155.428 C213.867,155.428 209.884,154.39 206.219,152.313 C202.554,150.236 199.631,147.373 197.452,143.724 C195.272,140.075 194.183,136.165 194.183,131.991 C194.183,127.781 195.253,123.879 197.393,120.288 C199.532,116.698 202.464,113.835 206.189,111.7 C209.855,109.604 213.847,108.556 218.166,108.556 L218.166,108.556 Z" id="Fill-18" fill="#FFFFFF"></path>
<path d="M274.902,109.517 L280.578,109.517 L280.578,138.076 C280.578,143.123 279.062,147.257 276.031,150.479 C272.919,153.779 268.808,155.428 263.697,155.428 C260.328,155.428 257.357,154.66 254.781,153.128 C252.105,151.536 250.095,149.276 248.748,146.344 C247.559,143.743 246.964,141.085 246.964,138.367 L246.964,109.517 L252.64,109.517 L252.64,136.999 C252.64,140.842 253.472,143.918 255.138,146.228 C257.058,148.848 259.912,150.158 263.697,150.158 C271.166,150.158 274.902,145.607 274.902,136.504 L274.902,109.517" id="Fill-19" fill="#FFFFFF"></path>
<path d="M308.99,118.017 C307.265,115.125 304.769,113.68 301.5,113.68 C298.607,113.68 296.408,114.785 294.902,116.998 C294.228,117.989 293.892,118.948 293.892,119.88 C293.892,122.734 295.388,124.723 298.378,125.849 L303.609,127.828 C308.939,129.847 312.318,132.506 313.744,135.806 C314.556,137.689 314.962,139.59 314.962,141.512 C314.962,144.346 314.15,146.893 312.525,149.154 C310.9,151.415 308.732,153.109 306.017,154.235 C304.115,155.03 302.263,155.428 300.46,155.428 C295.367,155.428 291.416,153.419 288.601,149.402 C287.234,147.461 286.421,145.267 286.164,142.822 L291.871,141.628 C291.871,143.414 292.335,144.995 293.267,146.373 C294.972,148.897 297.468,150.158 300.757,150.158 C302.957,150.158 304.853,149.45 306.449,148.033 C308.042,146.616 308.929,144.841 309.109,142.705 L309.226,141.221 C309.406,139.008 308.593,137.213 306.791,135.834 C305.363,134.748 303.224,133.603 300.371,132.4 C297.001,130.983 294.783,129.964 293.712,129.342 C290.007,127.188 288.156,123.995 288.156,119.764 C288.156,116.911 289.355,114.368 291.751,112.136 C294.367,109.71 297.695,108.497 301.738,108.497 C306.888,108.497 310.802,110.779 313.476,115.339 L308.99,118.017" id="Fill-20" fill="#FFFFFF"></path>
<polyline id="Fill-21" fill="#FFFFFF" points="321.234 109.517 345.871 109.517 345.871 114.64 326.939 114.64 326.939 127.217 345.396 127.217 345.396 132.341 326.939 132.341 326.939 149.343 345.871 149.343 345.871 154.467 321.234 154.467 321.234 109.517"></polyline>
<path d="M106.181,110.704 C106.181,130.534 90.106,146.609 70.277,146.609 C50.447,146.609 34.372,130.534 34.372,110.704 C34.372,90.875 50.447,74.8 70.277,74.8 C90.106,74.8 106.181,90.875 106.181,110.704" id="Fill-22" fill="#1E4473"></path>
<path d="M140.553,76.439 C140.553,96.239 124.502,112.29 104.702,112.29 C84.902,112.29 68.851,96.239 68.851,76.439 C68.851,56.639 84.902,40.588 104.702,40.588 C124.502,40.588 140.553,56.639 140.553,76.439" id="Fill-23" fill="#C44E30"></path>
<path d="M106.181,41.915 C106.181,61.745 90.106,77.82 70.277,77.82 C50.447,77.82 34.372,61.745 34.372,41.915 C34.372,22.086 50.447,6.011 70.277,6.011 C90.106,6.011 106.181,22.086 106.181,41.915" id="Fill-24" fill="#8A2227"></path>
<g id="Group-27" transform="translate(95.000000, 101.000000)">
<mask id="mask-4" fill="white">
<use xlink:href="#path-3"></use>
</mask>
<g id="Clip-26"></g>
<polygon id="Fill-25" fill="#CCC7BA" mask="url(#mask-4)" points="0.22 35.529 35.494 35.529 35.494 0.34 0.22 0.34"></polygon>
</g>
<path d="M94.597,136.535 C85.892,136.535 77.187,133.389 70.334,127.097 C70.687,126.771 71.033,126.438 71.376,126.095 C77.556,119.915 81.008,112.04 81.732,103.966 C87.953,109.163 95.962,112.29 104.702,112.29 C105.187,112.29 105.667,112.281 106.147,112.262 C105.741,121.779 101.63,130.337 95.22,136.529 C95.013,136.533 94.805,136.535 94.597,136.535" id="Fill-28" fill="#415671"></path>
<path d="M104.702,112.29 C95.962,112.29 87.953,109.163 81.732,103.966 C82.36,96.97 80.938,89.823 77.469,83.502 C82.822,86.441 88.765,87.91 94.71,87.91 C103.884,87.91 113.061,84.409 120.061,77.409 C120.404,77.067 120.737,76.72 121.063,76.367 C127.526,83.407 130.67,92.4 130.494,101.34 C124.287,107.769 115.697,111.883 106.147,112.262 C105.667,112.281 105.187,112.29 104.702,112.29" id="Fill-29" fill="#B06343"></path>
<path d="M45.395,136.589 C36.43,136.433 27.515,132.935 20.6740085,126.094 C7.019,112.438 6.682,90.506 19.666,76.443 C19.96,76.758 20.261,77.07 20.568,77.377 C26.743,83.553 34.605,87.008 42.672,87.744 C37.49,93.968 34.372,101.972 34.372,110.704 C34.372,120.875 38.6,130.057 45.395,136.589" id="Fill-30" fill="#CCC7BA"></path>
<path d="M46.026,136.595 C45.815,136.595 45.605,136.593 45.395,136.589 C38.6,130.057 34.372,120.875 34.372,110.704 C34.372,101.972 37.49,93.968 42.672,87.744 C43.764,87.844 44.86,87.894 45.956,87.894 C51.815,87.894 57.675,86.468 62.968,83.618 C55.647,97.216 57.728,114.537 69.209,126.019 C69.578,126.388 69.953,126.747 70.334,127.097 C63.479,133.427 54.751,136.595 46.026,136.595" id="Fill-31" fill="#415671"></path>
<path d="M70.334,127.097 C69.953,126.747 69.578,126.388 69.209,126.019 C57.728,114.537 55.647,97.216 62.968,83.618 C65.074,82.484 67.092,81.124 68.983,79.54 C69.822,89.339 74.603,98.011 81.732,103.966 C81.008,112.04 77.556,119.915 71.376,126.095 C71.033,126.438 70.687,126.771 70.334,127.097" id="Fill-32" fill="#5A636F"></path>
<path d="M81.732,103.966 C74.603,98.011 69.822,89.339 68.983,79.54 C69.442,79.155 69.891,78.76 70.335,78.349 C72.54,80.396 74.937,82.113 77.469,83.502 C80.938,89.823 82.36,96.97 81.732,103.966" id="Fill-33" fill="#A26D50"></path>
<path d="M130.558,51.605 C124.348,45.14 115.737,40.999 106.158,40.617 C105.818,31.059 101.743,22.453 95.347,16.214 C104.309,16.371 113.222,19.869 120.06,26.708 C126.946,33.593 130.445,42.581 130.558,51.605" id="Fill-34" fill="#CCC7BA"></path>
<path d="M121.063,76.367 C120.713,75.987 120.354,75.612 119.985,75.243 C113.81,69.067 105.947,65.612 97.881,64.876 C103.063,58.652 106.181,50.648 106.181,41.915 C106.181,41.481 106.173,41.048 106.158,40.617 C115.737,40.999 124.348,45.14 130.558,51.605 C130.67,60.481 127.504,69.393 121.063,76.367" id="Fill-35" fill="#B06343"></path>
<path d="M77.585,69.002 C84.906,55.404 82.825,38.083 71.344,26.601 C71.036,26.294 70.725,25.993 70.41,25.7 C77.264,19.371 85.987,16.208 94.71,16.208 C94.922,16.208 95.135,16.21 95.347,16.214 C101.743,22.453 105.818,31.059 106.158,40.617 C106.173,41.048 106.181,41.481 106.181,41.915 C106.181,50.648 103.063,58.652 97.881,64.876 C96.788,64.776 95.692,64.727 94.596,64.727 C88.738,64.727 82.878,66.152 77.585,69.002" id="Fill-36" fill="#8D4539"></path>
<path d="M94.71,87.91 C88.765,87.91 82.822,86.441 77.469,83.502 C76.35,81.464 75.02,79.514 73.475,77.679 C83.27,76.815 91.934,72.018 97.881,64.876 C105.947,65.612 113.81,69.067 119.985,75.243 C120.354,75.612 120.713,75.987 121.063,76.367 C120.737,76.72 120.404,77.067 120.061,77.409 C113.061,84.409 103.884,87.91 94.71,87.91" id="Fill-37" fill="#A26D50"></path>
<path d="M73.475,77.679 C73.101,77.236 72.714,76.798 72.315,76.369 C74.42,74.096 76.176,71.618 77.585,69.002 C82.878,66.152 88.738,64.727 94.596,64.727 C95.692,64.727 96.788,64.776 97.881,64.876 C91.934,72.018 83.27,76.815 73.475,77.679" id="Fill-38" fill="#8C5A49"></path>
<path d="M77.469,83.502 C74.937,82.113 72.54,80.396 70.335,78.349 C70.524,78.174 70.713,77.995 70.9,77.815 C71.765,77.8 72.625,77.754 73.475,77.679 C75.02,79.514 76.35,81.464 77.469,83.502" id="Fill-39" fill="#98735A"></path>
<path d="M70.9,77.815 C71.049,77.671 71.197,77.525 71.344,77.378 C71.675,77.046 72,76.709 72.315,76.369 C72.714,76.798 73.101,77.236 73.475,77.679 C72.625,77.754 71.765,77.8 70.9,77.815" id="Fill-40" fill="#8B6753"></path>
<path d="M19.666,76.443 C6.553,62.364 6.854,40.316 20.568,26.601 C27.42,19.749 36.353,16.245 45.333,16.091 C38.575,22.619 34.372,31.777 34.372,41.915 C34.372,50.723 37.544,58.79 42.807,65.037 C34.732,65.76 26.856,69.212 20.675,75.393 C20.33,75.738 19.994,76.088 19.666,76.443" id="Fill-41" fill="#CCC7BA"></path>
<path d="M63.267,69.3 C57.914,66.363 51.969,64.893 46.025,64.893 C44.951,64.893 43.878,64.941 42.807,65.037 C37.544,58.79 34.372,50.723 34.372,41.915 C34.372,31.777 38.575,22.619 45.333,16.091 C45.541,16.087 45.748,16.085 45.956,16.085 C54.742,16.085 63.527,19.29 70.41,25.7 C70.055,26.027 69.704,26.364 69.36,26.708 C57.824,38.244 55.792,55.685 63.267,69.3" id="Fill-42" fill="#8D4539"></path>
<path d="M42.672,87.744 C34.605,87.008 26.743,83.553 20.568,77.377 C20.261,77.07 19.96,76.758 19.666,76.443 C19.994,76.088 20.33,75.738 20.675,75.393 C26.856,69.212 34.732,65.76 42.807,65.037 C47.246,70.306 53.174,74.279 59.941,76.31 C53.105,78.362 47.126,82.396 42.672,87.744" id="Fill-43" fill="#B1AA99"></path>
<path d="M45.956,87.894 C44.86,87.894 43.764,87.844 42.672,87.744 C47.126,82.396 53.105,78.362 59.941,76.31 C62.205,76.989 64.562,77.451 66.99,77.671 C65.43,79.543 64.088,81.538 62.968,83.618 C57.675,86.468 51.815,87.894 45.956,87.894" id="Fill-44" fill="#5A636F"></path>
<path d="M66.99,77.671 C64.562,77.451 62.205,76.989 59.941,76.31 C53.174,74.279 47.246,70.306 42.807,65.037 C43.878,64.941 44.951,64.893 46.025,64.893 C51.969,64.893 57.914,66.363 63.267,69.3 C64.616,71.758 66.276,74.093 68.245,76.244 C67.812,76.711 67.393,77.187 66.99,77.671" id="Fill-45" fill="#8C5A49"></path>
<path d="M62.968,83.618 C64.088,81.538 65.43,79.543 66.99,77.671 C67.614,77.728 68.243,77.769 68.876,77.793 C68.898,78.379 68.934,78.962 68.983,79.54 C67.092,81.124 65.074,82.484 62.968,83.618" id="Fill-46" fill="#696C6E"></path>
<path d="M68.983,79.54 C68.934,78.962 68.898,78.379 68.876,77.793 C69.175,77.805 69.473,77.812 69.773,77.816 C69.959,77.996 70.147,78.174 70.335,78.349 C69.891,78.76 69.442,79.155 68.983,79.54" id="Fill-47" fill="#98735A"></path>
<path d="M69.773,77.816 C69.473,77.812 69.175,77.805 68.876,77.793 C68.243,77.769 67.614,77.728 66.99,77.671 C67.393,77.187 67.812,76.711 68.245,76.244 C68.606,76.638 68.977,77.027 69.359,77.409 C69.497,77.546 69.634,77.682 69.773,77.816" id="Fill-48" fill="#8B6753"></path>
<path d="M70.21,74.278 C68.058,72.309 65.726,70.65 63.267,69.3 C55.792,55.685 57.824,38.244 69.36,26.708 C69.704,26.364 70.055,26.027 70.41,25.7 C70.725,25.993 71.036,26.294 71.344,26.601 C82.825,38.083 84.906,55.404 77.585,69.002 C74.965,70.412 72.484,72.171 70.21,74.278" id="Fill-49" fill="#8C5A49"></path>
<path d="M72.315,76.369 C72.009,76.039 71.696,75.714 71.375,75.393 C70.994,75.011 70.605,74.639 70.21,74.278 C72.484,72.171 74.965,70.412 77.585,69.002 C76.176,71.618 74.42,74.096 72.315,76.369" id="Fill-50" fill="#8B6753"></path>
<path d="M68.245,76.244 C66.276,74.093 64.616,71.758 63.267,69.3 C65.726,70.65 68.058,72.309 70.21,74.278 C69.872,74.592 69.538,74.914 69.209,75.242 C68.879,75.572 68.559,75.905 68.245,76.244" id="Fill-51" fill="#8B6753"></path>
<path d="M70.335,78.349 C70.147,78.174 69.959,77.996 69.773,77.816 C69.941,77.819 70.109,77.82 70.277,77.82 C70.485,77.82 70.692,77.818 70.9,77.815 C70.713,77.995 70.524,78.174 70.335,78.349" id="Fill-52" fill="#91775F"></path>
<g id="Group-56" transform="translate(0.000000, 40.000000)">
<path d="M70.277,37.82 C70.109,37.82 69.941,37.819 69.773,37.816 C69.634,37.682 69.497,37.546 69.359,37.409 C68.977,37.027 68.606,36.638 68.245,36.244 C68.559,35.905 68.879,35.572 69.209,35.242 C69.538,34.914 69.872,34.592 70.21,34.278 C70.605,34.639 70.994,35.011 71.375,35.393 C71.696,35.714 72.009,36.039 72.315,36.369 C72,36.709 71.675,37.046 71.344,37.378 C71.197,37.525 71.049,37.671 70.9,37.815 C70.692,37.818 70.485,37.82 70.277,37.82" id="Fill-53" fill="#896F5B"></path>
<path d="M71.702,36.439 C71.702,56.239 55.651,72.29 35.851,72.29 C16.051,72.29 0,56.239 0,36.439 C0,16.639 16.051,0.588 35.851,0.588 C55.651,0.588 71.702,16.639 71.702,36.439" id="Fill-55" fill="#455C40"></path>
</g>
<path d="M119.696,76.439 C119.696,104.206 97.187,126.716 69.42,126.716 C41.653,126.716 19.144,104.206 19.144,76.439 C19.144,48.672 41.653,26.162 69.42,26.162 C97.187,26.162 119.696,48.672 119.696,76.439" id="Fill-57" fill="#FFFFFE"></path>
<polyline id="Fill-58" fill="#5F5744" points="69.893 32.142 33.393 71.892 40.268 71.892 40.143 109.267 62.643 109.267 71.893 113.767 71.893 87.517 62.643 83.142 77.268 83.142 77.268 109.392 99.518 109.392 99.518 72.142 106.393 72.142 69.893 32.142"></polyline>
<polygon id="Fill-59" fill="#FFFFFF" points="53.233 170.948 53.233 172.923 46.084 172.923 46.084 177.772 53.054 177.772 53.054 179.747 46.084 179.747 46.084 186.301 53.233 186.301 53.233 188.277 43.929 188.277 43.929 170.948"></polygon>
<polyline id="Fill-60" fill="#FFFFFF" points="64.18 183.882 70.15 170.185 73.697 188.277 71.444 188.277 69.422 176.737 64.179 188.692 58.96 176.693 56.879 188.277 54.707 188.277 58.243 170.177 64.18 183.882"></polyline>
<path d="M78.863,172.878 L77.92,172.878 L77.92,179.107 L78.638,179.107 C81.684,179.204 83.206,178.101 83.206,175.796 C83.206,173.851 81.758,172.878 78.863,172.878 Z M75.765,170.948 L78.492,170.948 C79.607,170.948 80.625,171.033 81.545,171.206 C82.749,171.43 83.674,171.981 84.317,172.856 C84.923,173.679 85.226,174.719 85.226,175.976 C85.226,177.727 84.586,179.04 83.307,179.915 C82.23,180.649 81.018,181.015 79.671,181.015 L77.92,181.015 L77.92,188.277 L75.72,188.277 L75.765,170.948 L75.765,170.948 Z" id="Fill-61" fill="#FFFFFF"></path>
<path d="M95.117,172.553 C93.867,172.553 92.715,172.864 91.66,173.485 C90.605,174.106 89.765,174.96 89.141,176.049 C88.516,177.138 88.204,178.325 88.204,179.613 C88.204,180.877 88.508,182.042 89.118,183.109 C89.728,184.174 90.572,185.026 91.649,185.661 C92.727,186.298 93.882,186.615 95.117,186.615 C96.359,186.615 97.509,186.303 98.568,185.678 C99.627,185.054 100.471,184.198 101.099,183.114 C101.728,182.03 102.042,180.862 102.042,179.613 C102.042,178.355 101.739,177.184 101.133,176.099 C100.527,175.015 99.687,174.152 98.613,173.512 C97.539,172.872 96.374,172.553 95.117,172.553 Z M95.117,170.577 C97.638,170.577 99.782,171.452 101.548,173.203 C103.313,174.954 104.197,177.091 104.197,179.613 C104.197,181.236 103.796,182.738 102.996,184.118 C102.195,185.499 101.091,186.599 99.685,187.418 C98.278,188.238 96.755,188.647 95.117,188.647 C93.493,188.647 91.989,188.246 90.605,187.447 C89.221,186.646 88.117,185.542 87.294,184.135 C86.471,182.729 86.06,181.221 86.06,179.613 C86.06,177.989 86.464,176.485 87.272,175.101 C88.08,173.716 89.187,172.613 90.594,171.789 C91.978,170.982 93.486,170.577 95.117,170.577 L95.117,170.577 Z" id="Fill-62" fill="#FFFFFF"></path>
<polyline id="Fill-63" fill="#FFFFFF" points="116.591 170.555 121.531 183.334 126.357 170.948 128.701 170.948 121.526 188.955 116.593 176.258 111.699 189 104.492 170.948 106.849 170.948 111.696 183.331 116.591 170.555"></polyline>
<polyline id="Fill-64" fill="#FFFFFF" points="130.185 170.948 139.489 170.948 139.489 172.923 132.34 172.923 132.34 177.772 139.31 177.772 139.31 179.747 132.34 179.747 132.34 186.301 139.489 186.301 139.489 188.277 130.185 188.277 130.185 170.948"></polyline>
<path d="M144.453,172.878 L144.453,179.174 C145.658,179.174 146.638,179.088 147.394,178.916 C148.958,178.557 149.739,177.562 149.739,175.931 C149.739,173.896 148.217,172.878 145.171,172.878 L144.453,172.878 Z M142.298,170.948 L145.396,170.948 C147.416,170.948 148.864,171.262 149.739,171.891 C151.086,172.856 151.759,174.157 151.759,175.796 C151.759,177.076 151.381,178.172 150.625,179.085 C149.87,179.998 148.863,180.548 147.606,180.735 L153.07,188.277 L150.48,188.277 L145.351,180.959 L144.453,180.959 L144.453,188.277 L142.298,188.277 L142.298,170.948 L142.298,170.948 Z" id="Fill-65" fill="#FFFFFF"></path>
<polygon id="Fill-66" fill="#FFFFFF" points="154.838 188.277 156.993 188.277 156.993 170.948 154.838 170.948"></polygon>
<polyline id="Fill-67" fill="#FFFFFF" points="160.172 170.079 173.18 183.781 173.18 170.948 175.391 170.948 175.391 188.995 162.316 175.337 162.316 188.277 160.172 188.277 160.172 170.079"></polyline>
<path d="M187.504,179.511 L194.384,179.511 L194.384,180.275 C194.384,182.624 193.621,184.603 192.095,186.211 C190.546,187.85 188.604,188.669 186.27,188.669 L185.776,188.669 L185.619,188.647 C184.422,188.647 183.198,188.281 181.949,187.547 C180.901,186.934 180.041,186.17 179.368,185.257 C178.036,183.447 177.37,181.531 177.37,179.511 C177.37,178.113 177.751,176.717 178.515,175.324 C179.674,173.2 181.365,171.771 183.587,171.037 C184.515,170.731 185.372,170.577 186.158,170.577 C187.729,170.577 189.082,170.837 190.215,171.358 C191.349,171.877 192.439,172.729 193.486,173.91 L191.904,175.381 C190.475,173.495 188.604,172.553 186.292,172.553 C185.155,172.553 184.066,172.86 183.026,173.473 C182.023,174.057 181.201,174.842 180.557,175.83 C179.861,176.893 179.514,178.074 179.514,179.376 L179.559,179.511 C179.559,180.768 179.873,181.956 180.501,183.074 C181.129,184.194 181.979,185.082 183.049,185.74 C184.051,186.354 185.039,186.66 186.012,186.66 C187.014,186.66 187.966,186.438 188.868,185.992 C189.77,185.547 190.508,184.921 191.085,184.113 C191.721,183.223 192.039,182.351 192.039,181.497 L187.504,181.497 L187.504,179.511" id="Fill-68" fill="#FFFFFF"></path>
<polyline id="Fill-69" fill="#FFFFFF" points="203.224 170.948 205.39 170.948 205.39 177.906 213.661 177.906 213.661 170.948 215.805 170.948 215.805 188.277 213.661 188.277 213.661 179.926 205.39 179.926 205.39 188.277 203.224 188.277 203.224 170.948"></polyline>
<polyline id="Fill-70" fill="#FFFFFF" points="219.085 170.948 228.39 170.948 228.39 172.923 221.24 172.923 221.24 177.772 228.21 177.772 228.21 179.747 221.24 179.747 221.24 186.301 228.39 186.301 228.39 188.277 219.085 188.277 219.085 170.948"></polyline>
<path d="M237.624,174.941 L234.572,181.958 L240.718,181.958 L237.624,174.941 Z M237.629,170.185 L245.923,188.277 L243.589,188.277 L241.599,183.933 L233.68,183.933 L231.704,188.277 L229.346,188.277 L237.629,170.185 L237.629,170.185 Z" id="Fill-71" fill="#FFFFFF"></path>
<polyline id="Fill-72" fill="#FFFFFF" points="247.498 170.948 249.653 170.948 249.653 186.301 254.916 186.301 254.916 188.277 247.498 188.277 247.498 170.948"></polyline>
<polyline id="Fill-73" fill="#FFFFFF" points="258.343 172.923 254.201 172.923 254.201 170.948 264.617 170.948 264.617 172.923 260.476 172.923 260.476 188.277 258.343 188.277 258.343 172.923"></polyline>
<polyline id="Fill-74" fill="#FFFFFF" points="266.236 170.948 268.402 170.948 268.402 177.906 276.673 177.906 276.673 170.948 278.818 170.948 278.818 188.277 276.673 188.277 276.673 179.926 268.402 179.926 268.402 188.277 266.236 188.277 266.236 170.948"></polyline>
<polygon id="Fill-75" fill="#FFFFFF" points="282.019 188.277 284.173 188.277 284.173 170.948 282.019 170.948"></polygon>
<polyline id="Fill-76" fill="#FFFFFF" points="287.566 170.948 296.871 170.948 296.871 172.923 289.722 172.923 289.722 177.772 296.691 177.772 296.691 179.747 289.722 179.747 289.722 186.301 296.871 186.301 296.871 188.277 287.566 188.277 287.566 170.948"></polyline>
<path d="M301.835,172.878 L301.835,179.174 C303.039,179.174 304.019,179.088 304.775,178.916 C306.339,178.557 307.121,177.562 307.121,175.931 C307.121,173.896 305.597,172.878 302.552,172.878 L301.835,172.878 Z M299.679,170.948 L302.777,170.948 C304.798,170.948 306.246,171.262 307.121,171.891 C308.468,172.856 309.14,174.157 309.14,175.796 C309.14,177.076 308.763,178.172 308.007,179.085 C307.251,179.998 306.244,180.548 304.988,180.735 L310.453,188.277 L307.861,188.277 L302.732,180.959 L301.835,180.959 L301.835,188.277 L299.679,188.277 L299.679,170.948 L299.679,170.948 Z" id="Fill-77" fill="#FFFFFF"></path>
<path d="M331.707,184.876 L331.707,187.424 C330.277,188.239 328.769,188.647 327.183,188.647 C325.986,188.647 324.837,188.415 323.738,187.951 C321.462,186.993 319.828,185.351 318.833,183.024 C318.347,181.887 318.103,180.671 318.103,179.376 C318.103,177.469 318.687,175.77 319.855,174.281 C320.746,173.152 321.837,172.253 323.132,171.587 C324.457,170.914 325.822,170.577 327.228,170.577 C328.896,170.577 330.39,170.951 331.707,171.699 L331.707,174.225 C330.367,173.08 328.826,172.508 327.082,172.508 C325.25,172.508 323.654,173.193 322.296,174.562 C320.937,175.931 320.259,177.536 320.259,179.376 C320.259,181.472 320.937,183.209 322.296,184.59 C323.654,185.97 325.25,186.66 327.082,186.66 C328.736,186.66 330.277,186.066 331.707,184.876" id="Fill-78" fill="#FFFFFF"></path>
<path d="M342.25,172.553 C341,172.553 339.847,172.864 338.792,173.485 C337.738,174.106 336.898,174.96 336.273,176.049 C335.648,177.138 335.335,178.325 335.335,179.613 C335.335,180.877 335.64,182.042 336.25,183.109 C336.859,184.174 337.703,185.026 338.781,185.661 C339.859,186.298 341.015,186.615 342.25,186.615 C343.492,186.615 344.642,186.303 345.701,185.678 C346.759,185.054 347.603,184.198 348.23,183.114 C348.859,182.03 349.173,180.862 349.173,179.613 C349.173,178.355 348.871,177.184 348.265,176.099 C347.658,175.015 346.818,174.152 345.746,173.512 C344.671,172.872 343.505,172.553 342.25,172.553 Z M342.25,170.577 C344.771,170.577 346.914,171.452 348.679,173.203 C350.445,174.954 351.328,177.091 351.328,179.613 C351.328,181.236 350.927,182.738 350.128,184.118 C349.328,185.499 348.224,186.599 346.816,187.418 C345.41,188.238 343.888,188.647 342.25,188.647 C340.625,188.647 339.121,188.246 337.738,187.447 C336.353,186.646 335.25,185.542 334.425,184.135 C333.603,182.729 333.191,181.221 333.191,179.613 C333.191,177.989 333.595,176.485 334.404,175.101 C335.212,173.716 336.32,172.613 337.726,171.789 C339.111,170.982 340.617,170.577 342.25,170.577 L342.25,170.577 Z" id="Fill-79" fill="#FFFFFF"></path>
<polyline id="Fill-80" fill="#FFFFFF" points="361.703 183.882 367.671 170.185 371.218 188.277 368.966 188.277 366.943 176.737 361.701 188.692 356.482 176.693 354.402 188.277 352.228 188.277 355.765 170.177 361.703 183.882"></polyline>
<polyline id="Fill-81" fill="#FFFFFF" points="381.425 183.882 387.394 170.185 390.941 188.277 388.689 188.277 386.666 176.737 381.423 188.692 376.205 176.693 374.125 188.277 371.951 188.277 375.488 170.177 381.425 183.882"></polyline>
<path d="M403.257,170.948 L405.4,170.948 L405.4,181.958 C405.4,183.904 404.828,185.497 403.683,186.739 C402.507,188.011 400.957,188.647 399.025,188.647 C397.753,188.647 396.63,188.351 395.658,187.76 C394.648,187.147 393.888,186.276 393.38,185.146 C392.931,184.143 392.707,183.117 392.707,182.071 L392.707,170.948 L394.851,170.948 L394.851,181.542 C394.851,183.024 395.166,184.21 395.792,185.101 C396.519,186.111 397.595,186.615 399.025,186.615 C401.845,186.615 403.257,184.861 403.257,181.352 L403.257,170.948" id="Fill-82" fill="#FFFFFF"></path>
<polyline id="Fill-83" fill="#FFFFFF" points="408.333 170.079 421.341 183.781 421.341 170.948 423.552 170.948 423.552 188.995 410.476 175.337 410.476 188.277 408.333 188.277 408.333 170.079"></polyline>
<polygon id="Fill-84" fill="#FFFFFF" points="426.652 188.277 428.808 188.277 428.808 170.948 426.652 170.948"></polygon>
<polyline id="Fill-85" fill="#FFFFFF" points="434.726 172.923 430.583 172.923 430.583 170.948 441 170.948 441 172.923 436.857 172.923 436.857 188.277 434.726 188.277 434.726 172.923"></polyline>
<polygon id="Fill-86" fill="#FFFFFF" points="442.72 188.277 444.875 188.277 444.875 170.948 442.72 170.948"></polygon>
<polyline id="Fill-87" fill="#FFFFFF" points="448.267 170.948 457.572 170.948 457.572 172.923 450.423 172.923 450.423 177.772 457.392 177.772 457.392 179.747 450.423 179.747 450.423 186.301 457.572 186.301 457.572 188.277 448.267 188.277 448.267 170.948"></polyline>
<path d="M468.103,174.225 C467.451,173.111 466.509,172.553 465.275,172.553 C464.181,172.553 463.351,172.979 462.783,173.832 C462.529,174.214 462.402,174.584 462.402,174.944 C462.402,176.043 462.966,176.81 464.095,177.244 L466.072,178.007 C468.083,178.785 469.359,179.811 469.898,181.082 C470.205,181.808 470.359,182.541 470.359,183.282 C470.359,184.374 470.052,185.357 469.439,186.229 C468.824,187.1 468.005,187.753 466.98,188.187 C466.261,188.493 465.562,188.647 464.88,188.647 C462.958,188.647 461.466,187.872 460.404,186.323 C459.886,185.575 459.58,184.73 459.484,183.787 L461.638,183.327 C461.638,184.016 461.814,184.625 462.166,185.156 C462.808,186.129 463.751,186.615 464.994,186.615 C465.824,186.615 466.541,186.342 467.142,185.796 C467.746,185.25 468.08,184.566 468.148,183.742 L468.193,183.17 C468.259,182.317 467.953,181.625 467.271,181.094 C466.734,180.675 465.925,180.234 464.847,179.77 C463.576,179.223 462.738,178.83 462.333,178.591 C460.935,177.76 460.236,176.53 460.236,174.899 C460.236,173.798 460.687,172.819 461.593,171.958 C462.58,171.023 463.837,170.555 465.365,170.555 C467.31,170.555 468.787,171.434 469.796,173.193 L468.103,174.225" id="Fill-88" fill="#FFFFFF"></path>
</g>
</g>
</g>
</svg>